<?xml version="1.0" standalone="no"?>
<!DOCTYPE svg PUBLIC "-//W3C//DTD SVG 20010904//EN"
 "http://www.w3.org/TR/2001/REC-SVG-20010904/DTD/svg10.dtd">
<svg version="1.0" xmlns="http://www.w3.org/2000/svg"
 width="698.000000pt" height="698.000000pt" viewBox="0 0 698.000000 698.000000"
 preserveAspectRatio="xMidYMid meet">
<metadata>
Created by potrace 1.14, written by Peter Selinger 2001-2017
</metadata>
<g transform="translate(0.000000,698.000000) scale(0.100000,-0.100000)"
fill="#000000" stroke="none">
<path d="M1053 6342 c-11 -2 -37 -19 -57 -38 -58 -56 -53 -81 57 -296 52 -101
110 -212 129 -248 122 -223 158 -292 158 -299 0 -5 6 -14 14 -20 10 -9 55 1
192 44 172 54 302 91 353 101 13 3 52 11 85 18 34 7 92 12 128 10 195 -7 261
-134 205 -395 -38 -180 2 -242 191 -288 146 -36 221 -107 223 -212 1 -33 2
-62 4 -66 1 -5 5 -26 10 -48 12 -58 57 -162 129 -299 35 -67 87 -175 116 -241
100 -228 152 -309 261 -408 54 -49 72 -72 79 -102 11 -49 -8 -109 -59 -185
-43 -63 -68 -125 -65 -157 1 -13 2 -30 3 -38 3 -32 66 -86 159 -134 215 -110
281 -226 208 -369 -48 -95 -139 -178 -368 -342 -68 -47 -118 -90 -118 -99 1
-26 35 -94 62 -123 59 -62 60 -62 443 -63 193 -1 368 -5 390 -9 82 -17 125
-62 131 -140 5 -70 34 -105 119 -140 107 -45 166 -166 159 -325 -7 -139 -58
-220 -152 -239 -26 -6 -170 -9 -320 -9 -149 1 -272 -1 -272 -5 0 -4 8 -22 18
-40 10 -18 38 -71 62 -118 58 -112 149 -261 173 -282 10 -9 40 -25 66 -35 41
-16 82 -18 361 -18 299 0 317 1 354 21 25 12 48 35 60 60 l21 39 1 2703 c1
1855 -2 2714 -9 2737 -14 46 -53 80 -106 93 -30 7 -587 10 -1810 9 -971 0
-1776 -3 -1788 -5z"/>
</g>
</svg>
